<?xml version="1.0" standalone="no"?>
<!DOCTYPE svg PUBLIC "-//W3C//DTD SVG 20010904//EN"
 "http://www.w3.org/TR/2001/REC-SVG-20010904/DTD/svg10.dtd">
<svg version="1.0" xmlns="http://www.w3.org/2000/svg"
 width="700.000000pt" height="700.000000pt" viewBox="0 0 700.000000 700.000000"
 preserveAspectRatio="xMidYMid meet">
<metadata>
Created by potrace 1.14, written by Peter Selinger 2001-2017
</metadata>
<g transform="translate(0.000000,700.000000) scale(0.100000,-0.100000)"
fill="#000000" stroke="none">
<path d="M3280 6994 c-19 -2 -84 -9 -145 -14 -578 -56 -1180 -283 -1660 -625
-237 -169 -531 -446 -709 -670 -416 -521 -673 -1147 -748 -1820 -17 -155 -17
-575 0 -730 52 -469 198 -931 418 -1327 290 -523 731 -983 1239 -1294 439
-269 920 -432 1460 -496 145 -17 576 -17 730 0 511 57 1005 222 1431 479 252
152 436 295 652 507 588 577 935 1293 1034 2131 7 62 13 220 13 365 0 145 -6
303 -13 365 -99 844 -447 1558 -1043 2141 -555 542 -1249 874 -2029 970 -117
15 -553 27 -630 18z m-915 -2129 c96 -25 166 -64 231 -130 103 -102 144 -210
144 -375 0 -239 -102 -374 -257 -340 -100 23 -120 71 -96 235 23 154 11 210
-57 276 -37 36 -59 49 -99 58 -70 15 -134 14 -209 -4 -152 -36 -254 -128 -316
-286 -51 -130 -62 -198 -106 -639 -17 -168 -37 -343 -45 -390 -8 -46 -13 -86
-11 -87 1 -1 47 -12 102 -23 54 -11 191 -43 304 -70 259 -62 336 -74 428 -66
149 14 248 62 379 187 48 46 68 59 92 59 29 0 31 2 31 36 0 66 32 179 77 273
35 74 59 108 113 161 118 117 246 166 410 158 70 -3 98 -10 153 -36 128 -60
226 -193 262 -358 l17 -75 42 6 c189 29 173 21 226 117 21 38 71 99 125 153
135 136 263 195 421 195 78 0 96 -11 109 -62 l7 -28 95 0 c86 0 96 -2 118 -25
19 -18 25 -35 25 -66 0 -23 -25 -197 -56 -386 -31 -189 -54 -346 -52 -349 3
-2 53 30 110 73 58 43 126 92 150 109 l45 32 7 78 c20 214 77 350 202 476 106
107 229 153 384 146 82 -4 108 -10 164 -36 180 -85 286 -272 286 -509 0 -400
-260 -692 -595 -670 -169 12 -278 84 -380 251 -9 15 -39 -3 -220 -126 l-210
-143 -12 -60 c-82 -393 -176 -671 -289 -851 -60 -97 -156 -186 -231 -214 -77
-29 -193 -30 -255 -2 -218 96 -230 364 -31 664 61 93 263 295 421 422 70 57
124 108 127 120 15 75 14 75 -32 28 -65 -64 -121 -87 -218 -87 -66 0 -90 5
-136 26 -131 62 -209 207 -209 389 l0 76 -81 -11 -80 -10 -25 -75 c-14 -41
-39 -100 -57 -130 -39 -69 -147 -177 -213 -212 -138 -74 -331 -75 -466 -1 -90
49 -182 168 -222 287 -6 18 -9 17 -26 -12 -34 -55 -162 -177 -235 -224 -130
-84 -262 -115 -438 -105 -120 7 -208 29 -372 93 -66 26 -178 69 -250 97 l-130
49 -20 -28 c-110 -156 -247 -224 -420 -211 -101 8 -161 32 -215 86 -180 180
27 440 352 441 57 0 57 0 62 33 3 17 14 196 26 397 12 201 28 412 36 470 44
304 192 532 434 668 69 39 215 88 300 101 87 13 281 6 355 -14z"/>
<path d="M4678 3646 c-52 -19 -129 -79 -171 -135 -70 -92 -110 -197 -128 -329
-19 -141 10 -219 88 -238 75 -19 167 72 202 202 6 23 29 137 51 255 22 118 42
224 45 237 5 19 1 22 -22 22 -16 -1 -45 -7 -65 -14z"/>
<path d="M3376 3615 c-117 -42 -185 -200 -174 -405 6 -104 29 -161 86 -212 41
-37 60 -43 127 -38 73 5 143 77 177 182 l22 69 -41 37 c-86 78 -123 168 -123
299 0 93 -1 94 -74 68z"/>
<path d="M5744 3601 c-45 -28 -89 -86 -109 -144 -23 -67 -32 -261 -16 -333 38
-167 202 -218 301 -92 94 121 106 416 19 526 -49 63 -132 81 -195 43z"/>
<path d="M4463 2303 c-165 -164 -241 -290 -250 -415 -7 -85 10 -118 60 -118
18 0 43 7 56 16 37 26 97 128 140 238 41 104 117 374 108 383 -3 2 -54 -44
-114 -104z"/>
</g>
</svg>
